# xmcd
#
# Track frame offsets:
#	150
#	15926
#	31026
#	44655
#	59236
#	75273
#	88584
#	102721
#	115230
#	132109
#
# Disc length: 1981 seconds
#
# Revision: 0
# Processed by: cddbd v1.5.1PL0 Copyright (c) Steve Scherf et al.
# Submitted via: dBpowerAMP V4.0
#
DISCID=7a07bb0a
DTITLE=Tracy Lawrence - I See it Now
DYEAR=1994
DGENRE=Country
TTITLE0=I See It Now
TTITLE1=Guilt Trip
TTITLE2=If The World Had A Front Porch
TTITLE3=Texas Tornado
TTITLE4=Hillbilly With a Heartache (With John Anderson)
TTITLE5=As Any Fool Can See
TTITLE6=God Made Woman On A Good Day
TTITLE7=I Got A Feelin'
TTITLE8=The Cards
TTITLE9=I'd Give Anything To Be Your Everything Again
EXTD=Tracy Lawrence - I See It Now
EXTT0=
EXTT1=
EXTT2=
EXTT3=
EXTT4=
EXTT5=
EXTT6=
EXTT7=
EXTT8=
EXTT9=
PLAYORDER=
